<svg xmlns="http://www.w3.org/2000/svg" width="1060" height="1040" viewBox="0 0 1060 1040"><defs><marker id="arrow" markerWidth="10" markerHeight="8" refX="9" refY="4" orient="auto"><path d="M0,0 L10,4 L0,8 z" fill="#222"/></marker><marker id="oarrow" markerWidth="12" markerHeight="10" refX="11" refY="5" orient="auto"><path d="M0,0 L12,5 L0,10" fill="none" stroke="#222" stroke-width="1.4"/></marker><marker id="diamond" markerWidth="14" markerHeight="12" refX="13" refY="6" orient="auto"><path d="M0,6 L6,1 L13,6 L6,11 z" fill="#222"/></marker><marker id="odiamond" markerWidth="14" markerHeight="12" refX="13" refY="6" orient="auto"><path d="M0,6 L6,1 L13,6 L6,11 z" fill="#fff" stroke="#222" stroke-width="1.2"/></marker></defs><rect x="0" y="0" width="1060" height="1040" fill="#ffffff"/><text x="530" y="32" font-family="DejaVu Sans, Verdana, sans-serif" font-size="19" text-anchor="middle" font-weight="bold" fill="#111" font-style="normal">Activity Diagram  -  Writing an Examination</text><circle cx="300" cy="80" r="15" fill="#222"/><path d="M 300 95 L 300 122" fill="none" stroke="#222" stroke-width="1.6" marker-end="url(#arrow)"/><rect x="150.0" y="125.0" width="300" height="46" rx="12" fill="#EAF2FB" stroke="#333" stroke-width="1.6"/><text x="300" y="152.5" font-family="DejaVu Sans, Verdana, sans-serif" font-size="12.5" text-anchor="middle" font-weight="normal" fill="#111" font-style="normal">Student opens Available Exams</text><path d="M 300 171 L 300 198" fill="none" stroke="#222" stroke-width="1.6" marker-end="url(#arrow)"/><rect x="150.0" y="201.0" width="300" height="46" rx="12" fill="#EAF2FB" stroke="#333" stroke-width="1.6"/><text x="300" y="228.5" font-family="DejaVu Sans, Verdana, sans-serif" font-size="12.5" text-anchor="middle" font-weight="normal" fill="#111" font-style="normal">Selects an exam and clicks Start</text><path d="M 300 247 L 300 276" fill="none" stroke="#222" stroke-width="1.6" marker-end="url(#arrow)"/><path d="M 300 278.0 L 375.0 316 L 300 354.0 L 225.0 316 z" fill="#FDF3E3" stroke="#333" stroke-width="1.6"/><text x="300" y="312" font-family="DejaVu Sans, Verdana, sans-serif" font-size="12" text-anchor="middle" font-weight="normal" fill="#111" font-style="normal">Exam still</text><text x="300" y="328" font-family="DejaVu Sans, Verdana, sans-serif" font-size="12" text-anchor="middle" font-weight="normal" fill="#111" font-style="normal">Active?</text><path d="M 300 354 L 300 384" fill="none" stroke="#222" stroke-width="1.6" marker-end="url(#arrow)"/><text x="316" y="372" font-family="DejaVu Sans, Verdana, sans-serif" font-size="11.5" text-anchor="middle" font-weight="normal" fill="#111" font-style="italic">yes</text><path d="M 375 316 L 630 316" fill="none" stroke="#222" stroke-width="1.6" marker-end="url(#arrow)"/><text x="500" y="308" font-family="DejaVu Sans, Verdana, sans-serif" font-size="11.5" text-anchor="middle" font-weight="normal" fill="#111" font-style="italic">no</text><rect x="640.0" y="293.0" width="280" height="46" rx="12" fill="#FDECEA" stroke="#333" stroke-width="1.6"/><text x="780" y="311.5" font-family="DejaVu Sans, Verdana, sans-serif" font-size="12.5" text-anchor="middle" font-weight="normal" fill="#111" font-style="normal">Show a message and</text><text x="780" y="329.5" font-family="DejaVu Sans, Verdana, sans-serif" font-size="12.5" text-anchor="middle" font-weight="normal" fill="#111" font-style="normal">refresh the list</text><rect x="140.0" y="387.0" width="320" height="46" rx="12" fill="#E9F7EF" stroke="#333" stroke-width="1.6"/><text x="300" y="405.5" font-family="DejaVu Sans, Verdana, sans-serif" font-size="12.5" text-anchor="middle" font-weight="normal" fill="#111" font-style="normal">Load the question paper and</text><text x="300" y="423.5" font-family="DejaVu Sans, Verdana, sans-serif" font-size="12.5" text-anchor="middle" font-weight="normal" fill="#111" font-style="normal">start the countdown timer</text><path d="M 300 443 L 300 470" fill="none" stroke="#222" stroke-width="1.6" marker-end="url(#arrow)"/><rect x="140.0" y="473.0" width="320" height="46" rx="12" fill="#EAF2FB" stroke="#333" stroke-width="1.6"/><text x="300" y="491.5" font-family="DejaVu Sans, Verdana, sans-serif" font-size="12.5" text-anchor="middle" font-weight="normal" fill="#111" font-style="normal">Show one question with its</text><text x="300" y="509.5" font-family="DejaVu Sans, Verdana, sans-serif" font-size="12.5" text-anchor="middle" font-weight="normal" fill="#111" font-style="normal">four options</text><path d="M 300 529 L 300 556" fill="none" stroke="#222" stroke-width="1.6" marker-end="url(#arrow)"/><path d="M 300 558.0 L 375.0 596 L 300 634.0 L 225.0 596 z" fill="#FDF3E3" stroke="#333" stroke-width="1.6"/><text x="300" y="592" font-family="DejaVu Sans, Verdana, sans-serif" font-size="12" text-anchor="middle" font-weight="normal" fill="#111" font-style="normal">Student selects</text><text x="300" y="608" font-family="DejaVu Sans, Verdana, sans-serif" font-size="12" text-anchor="middle" font-weight="normal" fill="#111" font-style="normal">an option?</text><path d="M 375 596 L 630 596" fill="none" stroke="#222" stroke-width="1.6" marker-end="url(#arrow)"/><text x="500" y="588" font-family="DejaVu Sans, Verdana, sans-serif" font-size="11.5" text-anchor="middle" font-weight="normal" fill="#111" font-style="italic">yes</text><rect x="640.0" y="573.0" width="280" height="46" rx="12" fill="#E9F7EF" stroke="#333" stroke-width="1.6"/><text x="780" y="591.5" font-family="DejaVu Sans, Verdana, sans-serif" font-size="12.5" text-anchor="middle" font-weight="normal" fill="#111" font-style="normal">Store the letter in the</text><text x="780" y="609.5" font-family="DejaVu Sans, Verdana, sans-serif" font-size="12.5" text-anchor="middle" font-weight="normal" fill="#111" font-style="normal">ExamSession map</text><path d="M 780 573 L 780 500 L 465 500" fill="none" stroke="#222" stroke-width="1.6" marker-end="url(#arrow)"/><text x="640" y="492" font-family="DejaVu Sans, Verdana, sans-serif" font-size="11.5" text-anchor="middle" font-weight="normal" fill="#111" font-style="italic">back to the question</text><path d="M 300 634 L 300 664" fill="none" stroke="#222" stroke-width="1.6" marker-end="url(#arrow)"/><text x="352" y="654" font-family="DejaVu Sans, Verdana, sans-serif" font-size="11.5" text-anchor="middle" font-weight="normal" fill="#111" font-style="italic">no / next</text><path d="M 300 668.0 L 375.0 706 L 300 744.0 L 225.0 706 z" fill="#FDF3E3" stroke="#333" stroke-width="1.6"/><text x="300" y="702" font-family="DejaVu Sans, Verdana, sans-serif" font-size="12" text-anchor="middle" font-weight="normal" fill="#111" font-style="normal">Time over or</text><text x="300" y="718" font-family="DejaVu Sans, Verdana, sans-serif" font-size="12" text-anchor="middle" font-weight="normal" fill="#111" font-style="normal">Submit clicked?</text><path d="M 225 706 L 120 706 L 120 496 L 140 496" fill="none" stroke="#222" stroke-width="1.6" marker-end="url(#arrow)"/><text x="60" y="600" font-family="DejaVu Sans, Verdana, sans-serif" font-size="11.5" text-anchor="middle" font-weight="normal" fill="#111" font-style="italic">no, keep writing</text><path d="M 300 744 L 300 776" fill="none" stroke="#222" stroke-width="1.6" marker-end="url(#arrow)"/><text x="316" y="764" font-family="DejaVu Sans, Verdana, sans-serif" font-size="11.5" text-anchor="middle" font-weight="normal" fill="#111" font-style="italic">yes</text><rect x="110.0" y="783.0" width="380" height="46" rx="12" fill="#FFF8E8" stroke="#333" stroke-width="1.6"/><text x="300" y="801.5" font-family="DejaVu Sans, Verdana, sans-serif" font-size="12.5" text-anchor="middle" font-weight="normal" fill="#111" font-style="normal">ResultDAO.submitExam :  one transaction</text><text x="300" y="819.5" font-family="DejaVu Sans, Verdana, sans-serif" font-size="12.5" text-anchor="middle" font-weight="normal" fill="#111" font-style="normal">INSERT results  +  INSERT answers</text><path d="M 300 829 L 300 856" fill="none" stroke="#222" stroke-width="1.6" marker-end="url(#arrow)"/><path d="M 300 858.0 L 375.0 896 L 300 934.0 L 225.0 896 z" fill="#FDF3E3" stroke="#333" stroke-width="1.6"/><text x="300" y="892" font-family="DejaVu Sans, Verdana, sans-serif" font-size="12" text-anchor="middle" font-weight="normal" fill="#111" font-style="normal">Both inserts</text><text x="300" y="908" font-family="DejaVu Sans, Verdana, sans-serif" font-size="12" text-anchor="middle" font-weight="normal" fill="#111" font-style="normal">succeeded?</text><path d="M 375 896 L 630 896" fill="none" stroke="#222" stroke-width="1.6" marker-end="url(#arrow)"/><text x="500" y="888" font-family="DejaVu Sans, Verdana, sans-serif" font-size="11.5" text-anchor="middle" font-weight="normal" fill="#111" font-style="italic">no</text><rect x="640.0" y="873.0" width="280" height="46" rx="12" fill="#FDECEA" stroke="#333" stroke-width="1.6"/><text x="780" y="891.5" font-family="DejaVu Sans, Verdana, sans-serif" font-size="12.5" text-anchor="middle" font-weight="normal" fill="#111" font-style="normal">rollback, show the error,</text><text x="780" y="909.5" font-family="DejaVu Sans, Verdana, sans-serif" font-size="12.5" text-anchor="middle" font-weight="normal" fill="#111" font-style="normal">nothing is saved</text><path d="M 920 896 L 980 896 L 980 706 L 378 706" fill="none" stroke="#222" stroke-width="1.6" marker-end="url(#arrow)"/><text x="760" y="698" font-family="DejaVu Sans, Verdana, sans-serif" font-size="11.5" text-anchor="middle" font-weight="normal" fill="#111" font-style="italic">the student may submit again</text><path d="M 300 934 L 300 962" fill="none" stroke="#222" stroke-width="1.6" marker-end="url(#arrow)"/><text x="372" y="952" font-family="DejaVu Sans, Verdana, sans-serif" font-size="11.5" text-anchor="middle" font-weight="normal" fill="#111" font-style="italic">yes, commit</text><rect x="130.0" y="965.0" width="340" height="46" rx="12" fill="#E9F7EF" stroke="#333" stroke-width="1.6"/><text x="300" y="992.5" font-family="DejaVu Sans, Verdana, sans-serif" font-size="12.5" text-anchor="middle" font-weight="normal" fill="#111" font-style="normal">Show the result and the answer sheet</text><circle cx="780" cy="988" r="16" fill="none" stroke="#222" stroke-width="2"/><circle cx="780" cy="988" r="10" fill="#222"/><path d="M 470 988 L 758 988" fill="none" stroke="#222" stroke-width="1.6" marker-end="url(#arrow)"/></svg>